<svg xmlns="http://www.w3.org/2000/svg" xmlns:xlink="http://www.w3.org/1999/xlink" width="500" zoomAndPan="magnify" viewBox="0 0 375 374.999991" height="500" preserveAspectRatio="xMidYMid meet" version="1.0"><defs><clipPath id="68ebe94237"><path d="M 64.875 95.144531 L 301.125 95.144531 L 301.125 331.394531 L 64.875 331.394531 Z M 64.875 95.144531 " clip-rule="nonzero"/></clipPath><clipPath id="9cfadccefb"><path d="M 163.445312 28.734375 L 368.195312 28.734375 L 368.195312 137.484375 L 163.445312 137.484375 Z M 163.445312 28.734375 " clip-rule="nonzero"/></clipPath></defs><g clip-path="url(#68ebe94237)"><path fill="#ffffff" d="M 64.875 95.144531 L 301.207031 95.144531 L 301.207031 331.480469 L 64.875 331.480469 Z M 64.875 95.144531 " fill-opacity="1" fill-rule="nonzero"/></g><path fill="#00353f" d="M 13.769531 345.140625 L 286.875 345.140625 C 295.382812 345.140625 303.875 338.21875 305.824219 329.679688 L 360.640625 90.941406 C 362.601562 82.402344 357.285156 75.480469 348.773438 75.480469 L 75.667969 75.480469 C 67.160156 75.480469 58.667969 82.402344 56.71875 90.941406 L 1.902344 329.679688 C -0.0585938 338.21875 5.257812 345.140625 13.769531 345.140625 Z M 247.921875 280.796875 C 255.578125 280.796875 261.78125 286.96875 261.824219 294.578125 C 261.78125 302.203125 255.578125 308.363281 247.921875 308.363281 C 247.890625 308.363281 247.863281 308.363281 247.832031 308.363281 L 181.421875 308.363281 C 173.691406 308.363281 167.429688 302.1875 167.429688 294.578125 C 167.472656 286.953125 173.675781 280.796875 181.332031 280.796875 C 181.363281 280.796875 181.390625 280.796875 181.421875 280.796875 L 247.832031 280.796875 C 247.863281 280.796875 247.890625 280.796875 247.921875 280.796875 Z M 73.558594 285.378906 L 184.71875 205.113281 L 184.71875 203.464844 L 114.875 129.382812 C 109.183594 123.34375 109.765625 113.578125 116.195312 107.554688 C 122.621094 101.53125 132.464844 101.5625 138.15625 107.613281 L 221.960938 196.511719 C 226.710938 201.5625 227.070312 209.1875 223.308594 215.074219 C 222.167969 217.382812 219.804688 219.898438 215.609375 222.847656 L 92.328125 311.117188 C 85.601562 316.003906 75.9375 314.1875 70.753906 307.089844 C 65.574219 299.972656 66.816406 290.265625 73.558594 285.378906 Z M 73.558594 285.378906 " fill-opacity="1" fill-rule="nonzero"/><g clip-path="url(#9cfadccefb)"><path fill="#de761d" d="M 331.003906 62.539062 C 327.601562 62.539062 324.308594 63 321.175781 63.847656 C 314.183594 43.496094 294.886719 28.863281 272.164062 28.863281 C 250.605469 28.863281 232.125 42.03125 224.316406 60.761719 C 221.53125 59.878906 218.566406 59.398438 215.488281 59.398438 C 199.378906 59.398438 186.320312 72.460938 186.320312 88.570312 C 186.320312 88.589844 186.324219 88.605469 186.324219 88.625 C 173.550781 89.457031 163.445312 100.074219 163.445312 113.058594 C 163.445312 126.585938 174.410156 137.550781 187.933594 137.550781 C 188.308594 137.550781 188.683594 137.539062 189.050781 137.523438 L 189.054688 137.550781 L 189.242188 137.515625 C 189.414062 137.503906 189.578125 137.488281 189.746094 137.476562 L 328.125 137.476562 C 329.074219 137.550781 330.035156 137.597656 331.003906 137.597656 C 351.730469 137.597656 368.535156 120.796875 368.535156 100.070312 C 368.535156 79.34375 351.730469 62.539062 331.003906 62.539062 Z M 331.003906 62.539062 " fill-opacity="1" fill-rule="nonzero"/></g></svg>